<?xml version="1.0" encoding="UTF-8" standalone="no"?> <svg id="Layer_1" data-name="Layer 1" xmlns="http://www.w3.org/2000/svg" viewBox="0 0 48 48"><title>Cooking</title><path d="M10,38v1a5.006,5.006,0,0,0,5,5H33a5.006,5.006,0,0,0,5-5V38Z"/><path d="M33.5,8a9.7,9.7,0,0,0-1.2.075,10.5,10.5,0,0,0-16.606,0A9.7,9.7,0,0,0,14.5,8,10.5,10.5,0,0,0,10,27.981V36H38V27.981A10.5,10.5,0,0,0,33.5,8ZM19,31a1,1,0,0,1-2,0V28a1,1,0,0,1,2,0Zm6,0a1,1,0,0,1-2,0V27a1,1,0,0,1,2,0Zm6,0a1,1,0,0,1-2,0V28a1,1,0,0,1,2,0Z"/></svg>